<svg xmlns="http://www.w3.org/2000/svg" viewBox="0 0 96 100"><defs><linearGradient id="g" x1=".2" y1="0" x2=".75" y2="1"><stop stop-color="#e4beff"/><stop offset=".48" stop-color="#a45aeb"/><stop offset="1" stop-color="#6530a4"/></linearGradient><linearGradient id="h" x2="0" y2="1"><stop stop-color="white" stop-opacity=".85"/><stop offset="1" stop-color="white" stop-opacity="0"/></linearGradient></defs><path d="M48 9C43 24 13 39 13 59C13 80 31 87 48 87C65 87 83 80 83 59C83 39 53 24 48 9Z" transform="translate(0 6)" fill="#6530a4" stroke="#180e36" stroke-opacity=".2" stroke-width="3"/><path d="M48 9C43 24 13 39 13 59C13 80 31 87 48 87C65 87 83 80 83 59C83 39 53 24 48 9Z" fill="url(#g)" stroke="#6530a4" stroke-width="2"/><path d="M33 45Q23 55 27 66" fill="none" stroke="white" stroke-opacity=".65" stroke-width="7" stroke-linecap="round"/><circle cx="67" cy="66" r="3" fill="white" opacity=".18"/></svg>